<?xml version="1.0" encoding="UTF-8" standalone="no"?>
<svg
   id="svg1061"
   width="431.8mm"
   height="279.4mm"
   version="1.1"
   viewBox="0 0 431.8 279.4"
   xmlns="http://www.w3.org/2000/svg"
   xmlns:svg="http://www.w3.org/2000/svg"
   xmlns:rdf="http://www.w3.org/1999/02/22-rdf-syntax-ns#"
   xmlns:cc="http://creativecommons.org/ns#"
   xmlns:dc="http://purl.org/dc/elements/1.1/">
  <defs
     id="defs1" />
  <metadata
     id="metadata1058">
    <rdf:RDF>
      <cc:Work
         rdf:about="">
        <dc:format>image/svg+xml</dc:format>
        <dc:type
           rdf:resource="http://purl.org/dc/dcmitype/StillImage" />
      </cc:Work>
    </rdf:RDF>
  </metadata>
  <rect
     x="2.2324941"
     y="1.3520062"
     width="427.30206"
     height="276.48956"
     style="clip-rule:evenodd;fill:#ffffff;fill-rule:evenodd;stroke:#000000;stroke-width:0.349381px;stroke-linecap:round;stroke-linejoin:round;stroke-miterlimit:1.5"
     id="rect1" />
  <g
     transform="matrix(0.06283854,0,0,0.06283854,2.9972018,263.33216)"
     id="g3"
     style="clip-rule:evenodd;fill-rule:evenodd;stroke-linecap:round;stroke-linejoin:round;stroke-miterlimit:1.5">
        <g
   transform="matrix(26.1111,0,0,26.1111,5432.14,118.879)"
   id="g2">
        </g>

        <text
   x="140.7"
   y="118.879"
   style="font-size:26.111px;font-family:ArialMT, Arial, sans-serif"
   id="text1">THE PURCHASE OF THIS DOCUMENT DOES NOT CONSTITUTE OWNERSHIP OF THE DOCUMENT, BUT SERVES AS A FEE FOR THE ONE-TIME RIGHT TO CONSTRUCT THE DESIGN CONTAINED HEREIN. ANY UNAUTHORIZED REPRODUCTION, REUSE, OR MODIFICATION OF THIS DOCUMENT WITHOUT THE WRIT EN CONSENT OF HOMETOWN CONTRACTORS, INC. WILL BE PROSECUTED TO THE FULL EXTENT OF THE LAW</text>

    </g>
  <path
     d="M 384.50698,74.377924 V 139.59679"
     style="clip-rule:evenodd;fill:none;fill-rule:evenodd;stroke:#000000;stroke-width:0.174691px;stroke-linecap:round;stroke-linejoin:round;stroke-miterlimit:1.5"
     id="path2" />
  <rect
     x="349.90121"
     y="74.377937"
     width="69.217911"
     height="65.218864"
     style="clip-rule:evenodd;fill:none;fill-rule:evenodd;stroke:#000000;stroke-width:0.174691px;stroke-linecap:round;stroke-linejoin:round;stroke-miterlimit:1.5"
     id="rect2" />
  <g
     transform="matrix(0.06283854,0,0,0.06283854,43.394009,1.5352612)"
     id="g5"
     style="clip-rule:evenodd;fill-rule:evenodd;stroke-linecap:round;stroke-linejoin:round;stroke-miterlimit:1.5">
        <g
   transform="matrix(33.3333,0,0,33.3333,5801.22,1202.38)"
   id="g4">
        </g>

        <text
   x="5546.2402"
   y="1202.38"
   style="font-size:33.333px;font-family:ArialMT, Arial, sans-serif"
   id="text3">REVISION DATE</text>

    </g>
  <path
     d="m 349.90117,66.185666 h 69.21791"
     style="clip-rule:evenodd;fill:none;fill-rule:evenodd;stroke:#000000;stroke-width:0.34247px;stroke-linecap:round;stroke-linejoin:round;stroke-miterlimit:1.5"
     id="path4" />
  <g
     transform="matrix(0.06283854,0,0,0.06283854,4.3780977,1.3520043)"
     id="g11"
     style="clip-rule:evenodd;fill-rule:evenodd;stroke-linecap:round;stroke-linejoin:round;stroke-miterlimit:1.5">
        <text
   x="5498.5898"
   y="535.41901"
   style="font-size:61.111px;font-family:ArialMT, Arial, sans-serif"
   id="text4">HOMETOWN CONTRACTORS, INC.</text>

        <text
   x="5498.5898"
   y="610.41901"
   style="font-size:61.111px;font-family:ArialMT, Arial, sans-serif"
   id="text5">4567 PACE PATRIOT BLVD</text>

        <text
   x="5498.5898"
   y="685.41901"
   style="font-size:61.111px;font-family:ArialMT, Arial, sans-serif"
   id="text6">PACE, FL 32571</text>

        <text
   x="5498.5898"
   y="760.41901"
   style="font-size:61.111px;font-family:ArialMT, Arial, sans-serif"
   id="text7">(850) 279-5537</text>

        <text
   x="5498.5898"
   y="835.41901"
   style="font-size:55.556px;font-family:ArialMT, Arial, sans-serif"
   id="text8">www.hometowncontractorsinc.com</text>

        <text
   x="5498.5898"
   y="910.41901"
   style="font-size:55.556px;font-family:ArialMT, Arial, sans-serif"
   id="text9">Florida: #CRC1330730, CFC1431148</text>

        <text
   x="5498.5898"
   y="985.41901"
   style="font-size:55.556px;font-family:ArialMT, Arial, sans-serif"
   id="text10">Alabama: #26460, #MP3115</text>

        <g
   transform="matrix(44.4444,0,0,44.4444,5752.97,1135.42)"
   id="g10">
        </g>

        <text
   x="5498.5898"
   y="1135.42"
   style="font-size:44.444px;font-family:ArialMT, Arial, sans-serif"
   id="text11">REVISIONS:</text>

    </g>
  <g
     transform="matrix(0.06283828,-1.8132623e-4,1.8132623e-4,0.06283828,2.0140582,3.424759)"
     id="g13"
     style="clip-rule:evenodd;fill-rule:evenodd;stroke-linecap:round;stroke-linejoin:round;stroke-miterlimit:1.5">
        <path
   d="m 5532.73,1212.53 1101.52,3.178"
   style="fill:none;stroke:#000000;stroke-width:2.78px"
   id="path12" />

    </g>
  <g
     transform="matrix(0.06283828,-1.8132623e-4,1.8132623e-4,0.06283828,2.0144458,7.7070673)"
     id="g14"
     style="clip-rule:evenodd;fill-rule:evenodd;stroke-linecap:round;stroke-linejoin:round;stroke-miterlimit:1.5">
        <path
   d="m 5532.73,1212.53 1101.52,3.178"
   style="fill:none;stroke:#000000;stroke-width:2.78px"
   id="path13" />

    </g>
  <g
     transform="matrix(0.06283828,-1.8132623e-4,1.8132623e-4,0.06283828,2.0143888,11.797668)"
     id="g15"
     style="clip-rule:evenodd;fill-rule:evenodd;stroke-linecap:round;stroke-linejoin:round;stroke-miterlimit:1.5">
        <path
   d="m 5532.73,1212.53 1101.52,3.178"
   style="fill:none;stroke:#000000;stroke-width:2.78px"
   id="path14" />

    </g>
  <g
     transform="matrix(0.06283828,-1.8132623e-4,1.8132623e-4,0.06283828,2.0143318,15.888265)"
     id="g16"
     style="clip-rule:evenodd;fill-rule:evenodd;stroke-linecap:round;stroke-linejoin:round;stroke-miterlimit:1.5">
        <path
   d="m 5532.73,1212.53 1101.52,3.178"
   style="fill:none;stroke:#000000;stroke-width:2.78px"
   id="path15" />

    </g>
  <g
     transform="matrix(0.06283828,-1.8132623e-4,1.8132623e-4,0.06283828,2.0142748,19.978867)"
     id="g17"
     style="clip-rule:evenodd;fill-rule:evenodd;stroke-linecap:round;stroke-linejoin:round;stroke-miterlimit:1.5">
        <path
   d="m 5532.73,1212.53 1101.52,3.178"
   style="fill:none;stroke:#000000;stroke-width:2.78px"
   id="path16" />

    </g>
  <g
     transform="matrix(0.06283828,-1.8132623e-4,1.8132623e-4,0.06283828,2.0142197,24.069403)"
     id="g18"
     style="clip-rule:evenodd;fill-rule:evenodd;stroke-linecap:round;stroke-linejoin:round;stroke-miterlimit:1.5">
        <path
   d="m 5532.73,1212.53 1101.52,3.178"
   style="fill:none;stroke:#000000;stroke-width:2.78px"
   id="path17" />

    </g>
  <g
     transform="matrix(0.06283828,-1.8132623e-4,1.8132623e-4,0.06283828,2.0141627,28.160006)"
     id="g19"
     style="clip-rule:evenodd;fill-rule:evenodd;stroke-linecap:round;stroke-linejoin:round;stroke-miterlimit:1.5">
        <path
   d="m 5532.73,1212.53 1101.52,3.178"
   style="fill:none;stroke:#000000;stroke-width:2.78px"
   id="path18" />

    </g>
  <g
     transform="matrix(0.06283828,-1.8132623e-4,1.8132623e-4,0.06283828,2.0141057,32.250602)"
     id="g20"
     style="clip-rule:evenodd;fill-rule:evenodd;stroke-linecap:round;stroke-linejoin:round;stroke-miterlimit:1.5">
        <path
   d="m 5532.73,1212.53 1101.52,3.178"
   style="fill:none;stroke:#000000;stroke-width:2.78px"
   id="path19" />

    </g>
  <g
     transform="matrix(0.06283828,-1.8132623e-4,1.8132623e-4,0.06283828,2.0140487,36.34114)"
     id="g21"
     style="clip-rule:evenodd;fill-rule:evenodd;stroke-linecap:round;stroke-linejoin:round;stroke-miterlimit:1.5">
        <path
   d="m 5532.73,1212.53 1101.52,3.178"
   style="fill:none;stroke:#000000;stroke-width:2.78px"
   id="path20" />

    </g>
  <g
     transform="matrix(0.06283828,-1.8132623e-4,1.8132623e-4,0.06283828,2.0139917,40.431736)"
     id="g22"
     style="clip-rule:evenodd;fill-rule:evenodd;stroke-linecap:round;stroke-linejoin:round;stroke-miterlimit:1.5">
        <path
   d="m 5532.73,1212.53 1101.52,3.178"
   style="fill:none;stroke:#000000;stroke-width:2.78px"
   id="path21" />

    </g>
  <g
     transform="matrix(0.06283828,-1.8132623e-4,1.8132623e-4,0.06283828,2.0139347,44.522341)"
     id="g23"
     style="clip-rule:evenodd;fill-rule:evenodd;stroke-linecap:round;stroke-linejoin:round;stroke-miterlimit:1.5">
        <path
   d="m 5532.73,1212.53 1101.52,3.178"
   style="fill:none;stroke:#000000;stroke-width:2.78px"
   id="path22" />

    </g>
  <g
     transform="matrix(0.06283828,-1.8132623e-4,1.8132623e-4,0.06283828,2.0138777,48.612936)"
     id="g24"
     style="clip-rule:evenodd;fill-rule:evenodd;stroke-linecap:round;stroke-linejoin:round;stroke-miterlimit:1.5">
        <path
   d="m 5532.73,1212.53 1101.52,3.178"
   style="fill:none;stroke:#000000;stroke-width:2.78px"
   id="path23" />

    </g>
  <g
     transform="matrix(0.06283828,-1.8132623e-4,1.8132623e-4,0.06283828,2.0138236,52.703475)"
     id="g25"
     style="clip-rule:evenodd;fill-rule:evenodd;stroke-linecap:round;stroke-linejoin:round;stroke-miterlimit:1.5">
        <path
   d="m 5532.73,1212.53 1101.52,3.178"
   style="fill:none;stroke:#000000;stroke-width:2.78px"
   id="path24" />

    </g>
  <g
     transform="matrix(0.06283828,-1.8132623e-4,1.8132623e-4,0.06283828,2.0137666,56.79408)"
     id="g26"
     style="clip-rule:evenodd;fill-rule:evenodd;stroke-linecap:round;stroke-linejoin:round;stroke-miterlimit:1.5">
        <path
   d="m 5532.73,1212.53 1101.52,3.178"
   style="fill:none;stroke:#000000;stroke-width:2.78px"
   id="path25" />

    </g>
  <g
     transform="matrix(0.06283828,-1.8132623e-4,1.8132623e-4,0.06283828,2.0137096,60.884675)"
     id="g27"
     style="clip-rule:evenodd;fill-rule:evenodd;stroke-linecap:round;stroke-linejoin:round;stroke-miterlimit:1.5">
        <path
   d="m 5532.73,1212.53 1101.52,3.178"
   style="fill:none;stroke:#000000;stroke-width:2.78px"
   id="path26" />

    </g>
  <g
     transform="matrix(0.06283854,0,0,0.06283854,6.003505,1.5352612)"
     id="g29"
     style="clip-rule:evenodd;fill-rule:evenodd;stroke-linecap:round;stroke-linejoin:round;stroke-miterlimit:1.5">
        <g
   transform="matrix(33.3333,0,0,33.3333,5859.25,1202.38)"
   id="g28">
        </g>

        <text
   x="5546.2402"
   y="1202.38"
   style="font-size:33.333px;font-family:ArialMT, Arial, sans-serif"
   id="text28">REVISION NUMBER</text>

    </g>
  <path
     d="M 349.90117,142.61492 H 419.1197"
     style="clip-rule:evenodd;fill:none;fill-rule:evenodd;stroke:#000000;stroke-width:0.349381px;stroke-linecap:round;stroke-linejoin:round;stroke-miterlimit:1.5"
     id="path29" />
  <g
     transform="matrix(0.06283854,0,0,0.06283854,2.232069,52.60249)"
     id="g30"
     style="clip-rule:evenodd;fill-rule:evenodd;stroke-linecap:round;stroke-linejoin:round;stroke-miterlimit:1.5">
        <path
   d="M 5532.73,2248.03 H 6634.26"
   style="fill:none;stroke:#000000;stroke-width:5.56px"
   id="path30" />

    </g>
  <g
     transform="matrix(0.06283854,0,0,0.06283854,2.2326466,62.838882)"
     id="g31"
     style="clip-rule:evenodd;fill-rule:evenodd;stroke-linecap:round;stroke-linejoin:round;stroke-miterlimit:1.5">
        <path
   d="M 5532.73,2248.03 H 6634.26"
   style="fill:none;stroke:#000000;stroke-width:5.56px"
   id="path31" />

    </g>
  <g
     transform="matrix(0.06283854,0,0,0.06283854,2.2326466,73.449803)"
     id="g32"
     style="clip-rule:evenodd;fill-rule:evenodd;stroke-linecap:round;stroke-linejoin:round;stroke-miterlimit:1.5">
        <path
   d="M 5532.73,2248.03 H 6634.26"
   style="fill:none;stroke:#000000;stroke-width:5.56px"
   id="path32" />

    </g>
  <g
     transform="matrix(0.06283854,0,0,0.06283854,2.7248577,117.61021)"
     id="g33"
     style="clip-rule:evenodd;fill-rule:evenodd;stroke-linecap:round;stroke-linejoin:round;stroke-miterlimit:1.5">
        <path
   d="M 5532.73,2248.03 H 6634.26"
   style="fill:none;stroke:#000000;stroke-width:5.56px"
   id="path33" />

    </g>
  <rect
     x="347.75589"
     y="7.6358552"
     width="74.493828"
     height="263.92188"
     style="clip-rule:evenodd;fill:none;fill-rule:evenodd;stroke:#000000;stroke-width:0.349381px;stroke-linecap:round;stroke-linejoin:round;stroke-miterlimit:1.5"
     id="rect33" />
  <g
     transform="matrix(0.06283854,0,0,0.06283854,2.2326466,51.071052)"
     id="g35"
     style="clip-rule:evenodd;fill-rule:evenodd;stroke-linecap:round;stroke-linejoin:round;stroke-miterlimit:1.5">
        <g
   transform="matrix(44.4444,0,0,44.4444,5629.04,2315.66)"
   id="g34">
        </g>

        <text
   x="5532.73"
   y="2315.6599"
   style="font-size:44.444px;font-family:ArialMT, Arial, sans-serif"
   id="text34">AHJ:</text>

    </g>
  <g
     transform="matrix(0.06283854,0,0,0.06283854,2.2326466,61.431115)"
     id="g37"
     style="clip-rule:evenodd;fill-rule:evenodd;stroke-linecap:round;stroke-linejoin:round;stroke-miterlimit:1.5">
        <g
   transform="matrix(44.4444,0,0,44.4444,5956.65,2315.66)"
   id="g36">
        </g>

        <text
   x="5532.73"
   y="2315.6599"
   style="font-size:44.444px;font-family:ArialMT, Arial, sans-serif"
   id="text36">PROJECT NUMBER:</text>

    </g>
  <g
     transform="matrix(0.06283854,0,0,0.06283854,2.7248577,116.82662)"
     id="g39"
     style="clip-rule:evenodd;fill-rule:evenodd;stroke-linecap:round;stroke-linejoin:round;stroke-miterlimit:1.5">
        <g
   transform="matrix(44.4444,0,0,44.4444,5688.33,2315.66)"
   id="g38">
        </g>

        <text
   x="5532.73"
   y="2315.6599"
   style="font-size:44.444px;font-family:ArialMT, Arial, sans-serif"
   id="text38">SHEET:</text>

    </g>
  <g
     transform="matrix(0.06283854,0,0,0.06283854,2.2325012,0.32935779)"
     id="g41"
     style="clip-rule:evenodd;fill-rule:evenodd;stroke-linecap:round;stroke-linejoin:round;stroke-miterlimit:1.5">
        <g
   transform="matrix(44.4444,0,0,44.4444,5747.58,2315.66)"
   id="g40">
        </g>

        <text
   x="5532.73"
   y="2315.6599"
   style="font-size:44.444px;font-family:ArialMT, Arial, sans-serif"
   id="text40">PROJECT:</text>

    </g>
  <rect
     x="8.4276867"
     y="7.6358552"
     width="339.32812"
     height="263.92188"
     style="clip-rule:evenodd;fill:none;fill-rule:evenodd;stroke:#000000;stroke-width:0.349381px;stroke-linecap:round;stroke-linejoin:round;stroke-miterlimit:1.5"
     id="rect41" />
  <path
     d="M 8.4276912,268.85693 H 347.7558"
     style="clip-rule:evenodd;fill:none;fill-rule:evenodd;stroke:#000000;stroke-width:0.349381px;stroke-linecap:round;stroke-linejoin:round;stroke-miterlimit:1.5"
     id="path41" />
</svg>
